<svg id="SvgjsSvg1001" width="288" height="288" xmlns="http://www.w3.org/2000/svg" version="1.1" xmlns:xlink="http://www.w3.org/1999/xlink" xmlns:svgjs="http://svgjs.com/svgjs"><defs id="SvgjsDefs1002"></defs><g id="SvgjsG1008" transform="matrix(1,0,0,1,0,0)"><svg xmlns="http://www.w3.org/2000/svg" class="ionicon" viewBox="0 0 512 512" width="288" height="288"><path fill="none" stroke="#ff8066" stroke-miterlimit="10" stroke-width="32" d="M448 256c0-106-86-192-192-192S64 150 64 256s86 192 192 192 192-86 192-192z" class="colorStrokecurrentColor svgStroke"></path><path fill="none" stroke="#ff8066" stroke-linecap="round" stroke-linejoin="round" stroke-width="32" d="M250.26 166.05L256 288l5.73-121.95a5.74 5.74 0 00-5.79-6h0a5.74 5.74 0 00-5.68 6z" class="colorStrokecurrentColor svgStroke"></path><path d="M256 367.91a20 20 0 1120-20 20 20 0 01-20 20z" fill="#ff8066" class="color000 svgShape"></path></svg></g></svg>